<svg xmlns="http://www.w3.org/2000/svg" version="1.1" xmlns:xlink="http://www.w3.org/1999/xlink" xmlns:svgjs="http://svgjs.dev/svgjs" viewBox="0 0 800 800" opacity="0.79"><defs><linearGradient x1="50%" y1="0%" x2="50%" y2="100%" id="hhhorizon-grad"><stop stop-color="hsl(37, 99%, 67%)" stop-opacity="1" offset="25%"></stop><stop stop-color="hsl(316, 73%, 52%)" stop-opacity="1" offset="100%"></stop></linearGradient><linearGradient x1="50%" y1="0%" x2="50%" y2="100%" id="hhhorizon-grad2"><stop stop-color="hsl(316, 73%, 52%)" stop-opacity="1" offset="0%"></stop><stop stop-color="hsl(37, 99%, 67%)" stop-opacity="1" offset="75%"></stop></linearGradient><clipPath id="SvgjsClipPath1060"><rect width="800" height="39" x="0" y="0"></rect><rect width="800" height="38" x="0" y="21"></rect><rect width="800" height="37" x="0" y="42"></rect><rect width="800" height="36" x="0" y="63"></rect><rect width="800" height="35" x="0" y="84"></rect><rect width="800" height="34" x="0" y="105"></rect><rect width="800" height="33" x="0" y="126"></rect><rect width="800" height="32" x="0" y="147"></rect><rect width="800" height="31" x="0" y="168"></rect><rect width="800" height="30" x="0" y="189"></rect><rect width="800" height="29" x="0" y="211"></rect><rect width="800" height="28" x="0" y="232"></rect><rect width="800" height="27" x="0" y="253"></rect><rect width="800" height="26" x="0" y="274"></rect><rect width="800" height="25" x="0" y="295"></rect><rect width="800" height="24" x="0" y="316"></rect><rect width="800" height="23" x="0" y="337"></rect><rect width="800" height="22" x="0" y="358"></rect><rect width="800" height="21" x="0" y="379"></rect><rect width="800" height="20" x="0" y="400"></rect><rect width="800" height="19" x="0" y="421"></rect><rect width="800" height="18" x="0" y="442"></rect><rect width="800" height="17" x="0" y="463"></rect><rect width="800" height="16" x="0" y="484"></rect><rect width="800" height="15" x="0" y="505"></rect><rect width="800" height="14" x="0" y="526"></rect><rect width="800" height="13" x="0" y="547"></rect><rect width="800" height="12" x="0" y="568"></rect><rect width="800" height="11" x="0" y="589"></rect><rect width="800" height="10" x="0" y="611"></rect><rect width="800" height="9" x="0" y="632"></rect><rect width="800" height="8" x="0" y="653"></rect><rect width="800" height="7" x="0" y="674"></rect><rect width="800" height="6" x="0" y="695"></rect><rect width="800" height="5" x="0" y="716"></rect><rect width="800" height="4" x="0" y="737"></rect><rect width="800" height="3" x="0" y="758"></rect><rect width="800" height="2" x="0" y="779"></rect><rect width="800" height="1" x="0" y="800"></rect></clipPath><clipPath><rect width="800" height="1" x="0" y="39"></rect><rect width="800" height="2" x="0" y="78"></rect><rect width="800" height="3" x="0" y="117"></rect><rect width="800" height="4" x="0" y="156"></rect><rect width="800" height="5" x="0" y="195"></rect><rect width="800" height="6" x="0" y="234"></rect><rect width="800" height="7" x="0" y="273"></rect><rect width="800" height="8" x="0" y="312"></rect><rect width="800" height="9" x="0" y="351"></rect><rect width="800" height="10" x="0" y="390"></rect><rect width="800" height="11" x="0" y="429"></rect><rect width="800" height="12" x="0" y="468"></rect><rect width="800" height="13" x="0" y="507"></rect><rect width="800" height="14" x="0" y="546"></rect><rect width="800" height="15" x="0" y="585"></rect><rect width="800" height="16" x="0" y="624"></rect><rect width="800" height="17" x="0" y="663"></rect><rect width="800" height="18" x="0" y="702"></rect><rect width="800" height="19" x="0" y="741"></rect><rect width="800" height="20" x="0" y="780"></rect><rect width="800" height="21" x="0" y="819"></rect></clipPath></defs><rect width="800" height="800" fill="url(#hhhorizon-grad)" clip-path="url(&quot;#SvgjsClipPath1060&quot;)"></rect></svg>