<svg xmlns="http://www.w3.org/2000/svg" version="1.1" xmlns:xlink="http://www.w3.org/1999/xlink" xmlns:svgjs="http://svgjs.dev/svgjs" viewBox="0 0 800 800" opacity="1"><defs><linearGradient x1="50%" y1="0%" x2="50%" y2="100%" id="nnneon-grad"><stop stop-color="hsl(50, 98%, 60%)" stop-opacity="1" offset="0%"></stop><stop stop-color="hsl(50, 98%, 80%)" stop-opacity="1" offset="100%"></stop></linearGradient><filter id="nnneon-filter" x="-100%" y="-100%" width="400%" height="400%" filterUnits="objectBoundingBox" primitiveUnits="userSpaceOnUse" color-interpolation-filters="sRGB">
	<feGaussianBlur stdDeviation="27 27" x="0%" y="0%" width="100%" height="100%" in="SourceGraphic" edgeMode="none" result="blur"></feGaussianBlur></filter><filter id="nnneon-filter2" x="-100%" y="-100%" width="400%" height="400%" filterUnits="objectBoundingBox" primitiveUnits="userSpaceOnUse" color-interpolation-filters="sRGB">
	<feGaussianBlur stdDeviation="34 46" x="0%" y="0%" width="100%" height="100%" in="SourceGraphic" edgeMode="none" result="blur"></feGaussianBlur></filter></defs><g stroke-width="24.5" stroke="url(#nnneon-grad)" fill="none"><path d="M390.9508576565622 279.4403407686642C394.6581488786536 271.94902789613764 405.34185141464775 271.94902789613764 409.04914263673913 279.4403407686642L523.9398341400969 511.6044054976388C527.2604443877707 518.3142795341364 522.377966078938 526.1781388284909 514.8917012609077 526.1781388284909H285.1082990323937C277.62203421436334 526.1781388284909 272.73955590553066 518.3142795341364 276.06016615320453 511.6044054976388L390.9508576565622 279.4403407686642Z " filter="url(#nnneon-filter)"></path><path d="M500.9508576565622 279.4403407686642C504.6581488786536 271.94902789613764 515.3418514146477 271.94902789613764 519.0491426367391 279.4403407686642L633.9398341400969 511.6044054976388C637.2604443877707 518.3142795341364 632.377966078938 526.1781388284909 624.8917012609077 526.1781388284909H395.1082990323937C387.62203421436334 526.1781388284909 382.73955590553066 518.3142795341364 386.06016615320453 511.6044054976388L500.9508576565622 279.4403407686642Z " filter="url(#nnneon-filter2)" opacity="0.83"></path><path d="M280.9508576565622 279.4403407686642C284.6581488786536 271.94902789613764 295.34185141464775 271.94902789613764 299.04914263673913 279.4403407686642L413.9398341400969 511.6044054976388C417.2604443877707 518.3142795341364 412.377966078938 526.1781388284909 404.89170126090767 526.1781388284909H175.1082990323937C167.62203421436334 526.1781388284909 162.73955590553066 518.3142795341364 166.06016615320453 511.6044054976388L280.9508576565622 279.4403407686642Z " filter="url(#nnneon-filter2)" opacity="0.83"></path><path d="M390.9508576565622 279.4403407686642C394.6581488786536 271.94902789613764 405.34185141464775 271.94902789613764 409.04914263673913 279.4403407686642L523.9398341400969 511.6044054976388C527.2604443877707 518.3142795341364 522.377966078938 526.1781388284909 514.8917012609077 526.1781388284909H285.1082990323937C277.62203421436334 526.1781388284909 272.73955590553066 518.3142795341364 276.06016615320453 511.6044054976388L390.9508576565622 279.4403407686642Z "></path></g></svg>