<svg xmlns="http://www.w3.org/2000/svg" version="1.1" xmlns:xlink="http://www.w3.org/1999/xlink" xmlns:svgjs="http://svgjs.dev/svgjs" viewBox="0 0 800 800"><defs><linearGradient x1="50%" y1="0%" x2="50%" y2="100%" id="nnneon-grad"><stop stop-color="hsl(335, 77%, 60%)" stop-opacity="1" offset="0%"></stop><stop stop-color="hsl(335, 77%, 80%)" stop-opacity="1" offset="100%"></stop></linearGradient><filter id="nnneon-filter" x="-100%" y="-100%" width="400%" height="400%" filterUnits="objectBoundingBox" primitiveUnits="userSpaceOnUse" color-interpolation-filters="sRGB">
	<feGaussianBlur stdDeviation="17 8" x="0%" y="0%" width="100%" height="100%" in="SourceGraphic" edgeMode="none" result="blur"></feGaussianBlur></filter><filter id="nnneon-filter2" x="-100%" y="-100%" width="400%" height="400%" filterUnits="objectBoundingBox" primitiveUnits="userSpaceOnUse" color-interpolation-filters="sRGB">
	<feGaussianBlur stdDeviation="45 55" x="0%" y="0%" width="100%" height="100%" in="SourceGraphic" edgeMode="none" result="blur"></feGaussianBlur></filter></defs><g stroke-width="27.5" stroke="url(#nnneon-grad)" fill="none"><path d="M388.16371125570134 242.30799078034445C393.01284817419685 232.5093535430796 406.98713109127726 232.5093535430796 411.83626800977277 242.30799078034445L562.1132924961646 545.9785874458432C566.456650700122 554.7551026855821 560.0703690721688 565.0410306425977 550.2783346901851 565.0410306425977H249.72164457528896C239.92961019330522 565.0410306425977 233.5433285653521 554.7551026855821 237.8866867693095 545.9785874458432L388.16371125570134 242.30799078034445Z " filter="url(#nnneon-filter)"></path><path d="M400.16371125570134 242.30799078034445C405.01284817419685 232.5093535430796 418.98713109127726 232.5093535430796 423.83626800977277 242.30799078034445L574.1132924961646 545.9785874458432C578.456650700122 554.7551026855821 572.0703690721688 565.0410306425977 562.2783346901851 565.0410306425977H261.72164457528896C251.92961019330522 565.0410306425977 245.5433285653521 554.7551026855821 249.8866867693095 545.9785874458432L400.16371125570134 242.30799078034445Z " filter="url(#nnneon-filter2)" opacity="0.25"></path><path d="M376.16371125570134 242.30799078034445C381.01284817419685 232.5093535430796 394.98713109127726 232.5093535430796 399.83626800977277 242.30799078034445L550.1132924961646 545.9785874458432C554.456650700122 554.7551026855821 548.0703690721688 565.0410306425977 538.2783346901851 565.0410306425977H237.72164457528896C227.92961019330522 565.0410306425977 221.5433285653521 554.7551026855821 225.8866867693095 545.9785874458432L376.16371125570134 242.30799078034445Z " filter="url(#nnneon-filter2)" opacity="0.25"></path><path d="M388.16371125570134 242.30799078034445C393.01284817419685 232.5093535430796 406.98713109127726 232.5093535430796 411.83626800977277 242.30799078034445L562.1132924961646 545.9785874458432C566.456650700122 554.7551026855821 560.0703690721688 565.0410306425977 550.2783346901851 565.0410306425977H249.72164457528896C239.92961019330522 565.0410306425977 233.5433285653521 554.7551026855821 237.8866867693095 545.9785874458432L388.16371125570134 242.30799078034445Z "></path></g></svg>