<svg xmlns="http://www.w3.org/2000/svg" version="1.1" xmlns:xlink="http://www.w3.org/1999/xlink" xmlns:svgjs="http://svgjs.dev/svgjs" viewBox="0 0 800 800"><defs><linearGradient x1="50%" y1="0%" x2="50%" y2="100%" id="nnneon-grad"><stop stop-color="hsl(1.4, 100%, 67%)" stop-opacity="1" offset="0%"></stop><stop stop-color="hsl(167, 52%, 78%)" stop-opacity="1" offset="100%"></stop></linearGradient><filter id="nnneon-filter" x="-100%" y="-100%" width="400%" height="400%" filterUnits="objectBoundingBox" primitiveUnits="userSpaceOnUse" color-interpolation-filters="sRGB">
	<feGaussianBlur stdDeviation="37 17" x="0%" y="0%" width="100%" height="100%" in="SourceGraphic" edgeMode="none" result="blur"></feGaussianBlur></filter><filter id="nnneon-filter2" x="-100%" y="-100%" width="400%" height="400%" filterUnits="objectBoundingBox" primitiveUnits="userSpaceOnUse" color-interpolation-filters="sRGB">
	<feGaussianBlur stdDeviation="10 17" x="0%" y="0%" width="100%" height="100%" in="SourceGraphic" edgeMode="none" result="blur"></feGaussianBlur></filter></defs><g stroke-width="19.5" stroke="url(#nnneon-grad)" fill="none"><path d="M387.40358458059086 232.1809758343556C392.5641339617421 221.75306831579854 407.4358478918459 221.75306831579854 412.59639727299714 232.1809758343556L572.524239845671 555.3533539370883C577.146529310433 564.6934985958928 570.3501195045378 575.6399907336342 559.9292388778397 575.6399907336342H240.07074297574832C229.64986234905007 575.6399907336342 222.85345254315496 564.6934985958928 227.47574200791695 555.3533539370883L387.40358458059086 232.1809758343556Z " filter="url(#nnneon-filter)"></path><path d="M399.40358458059086 232.1809758343556C404.5641339617421 221.75306831579854 419.4358478918459 221.75306831579854 424.59639727299714 232.1809758343556L584.524239845671 555.3533539370883C589.146529310433 564.6934985958928 582.3501195045378 575.6399907336342 571.9292388778397 575.6399907336342H252.07074297574832C241.64986234905007 575.6399907336342 234.85345254315496 564.6934985958928 239.47574200791695 555.3533539370883L399.40358458059086 232.1809758343556Z " filter="url(#nnneon-filter2)" opacity="0.25"></path><path d="M375.40358458059086 232.1809758343556C380.5641339617421 221.75306831579854 395.4358478918459 221.75306831579854 400.59639727299714 232.1809758343556L560.524239845671 555.3533539370883C565.146529310433 564.6934985958928 558.3501195045378 575.6399907336342 547.9292388778397 575.6399907336342H228.07074297574832C217.64986234905007 575.6399907336342 210.85345254315496 564.6934985958928 215.47574200791695 555.3533539370883L375.40358458059086 232.1809758343556Z " filter="url(#nnneon-filter2)" opacity="0.25"></path><path d="M387.40358458059086 232.1809758343556C392.5641339617421 221.75306831579854 407.4358478918459 221.75306831579854 412.59639727299714 232.1809758343556L572.524239845671 555.3533539370883C577.146529310433 564.6934985958928 570.3501195045378 575.6399907336342 559.9292388778397 575.6399907336342H240.07074297574832C229.64986234905007 575.6399907336342 222.85345254315496 564.6934985958928 227.47574200791695 555.3533539370883L387.40358458059086 232.1809758343556Z "></path></g></svg>